<svg xmlns="http://www.w3.org/2000/svg" viewBox="0 0 512 512">
  <path fill="green" d="m41.068359 73.195312 1.38316 119.149268 68.794371 36.38496 22.60199-15.01887.031-99.77317zM120.84961 311.64258l-79.781251 54.35547v77.9707l92.810551-21.54687V318.55664ZM39.154297 2.0527344l1.914062 67.1425776L216.25586 146.09961V79.794922ZM216.25586 407.29688 41.068359 447.96875l33.605469 57.84766 141.582032-32.86914Z"/>
  <path fill="teal" d="M216.25586 169.63672 41.068359 288.99414v72.91602L216.25586 242.55273Z"/>
  <path fill="teal" d="M24.884766 187.86523v68.85547L216.25586 358.26562v-68.85546L24.884766 187.86523zm250.822264 133.0918v68.85547l167.02539 110.61133c-47.60135-86.07081-83.97263-135.39814-167.02539-179.4668z"/>
  <path fill="#a00" d="M221.99023 13.464844V501.54492h48.27344V114.00586L221.99023 13.464844z"/>
  <path fill="#a00" d="m257.03528 72.43526 235.95504 405.82177-42.2576 22.16634-187.34999-322.22538Z"/>
</svg>
